<?xml version="1.0" ?><svg enable-background="new 0 0 32 32" version="1.1" viewBox="0 0 32 32" xml:space="preserve" xmlns="http://www.w3.org/2000/svg" xmlns:xlink="http://www.w3.org/1999/xlink"><g id="Flat_copy"><g><g><path d="M15.995,31.625C7.38,31.625,0.37,24.615,0.37,16S7.38,0.375,15.995,0.375S31.62,7.385,31.62,16     S24.61,31.625,15.995,31.625z" fill="#FFFFFF"/><path d="M15.995,0.75c8.409,0,15.25,6.841,15.25,15.25s-6.841,15.25-15.25,15.25     c-8.409,0-15.25-6.841-15.25-15.25S7.586,0.75,15.995,0.75 M15.995,0c-8.837,0-16,7.163-16,16c0,8.836,7.163,16,16,16     s16-7.164,16-16C31.995,7.163,24.831,0,15.995,0L15.995,0z" fill="#E5E5E5"/></g></g><g><path d="M18.204,7.182c0,0-4.049,0-5.435,0c-2.486,0-4.827,1.745-4.827,3.926c0,2.229,1.695,3.962,4.224,3.962    c0.176,0,0.347-0.04,0.515-0.052c-0.166,0.313-0.28,0.65-0.28,1.017c0,0.62,0.332,1.114,0.753,1.524    c-0.316,0-0.625,0.004-0.961,0.004c-3.08,0.001-5.45,1.961-5.45,3.995c0,2.003,2.599,3.258,5.679,3.258    c3.512,0,5.451-1.994,5.451-3.997c0-1.606-0.474-2.568-1.939-3.607c-0.502-0.354-1.46-1.217-1.46-1.725    c0-0.594,0.169-0.887,1.065-1.587c0.916-0.716,1.566-1.57,1.566-2.743c0-1.394-0.6-3.095-1.766-3.095h1.984L18.204,7.182z     M16.38,20.473c0.042,0.187,0.068,0.378,0.068,0.572c0,1.619-1.045,2.884-4.038,2.884c-2.129,0-3.666-1.347-3.666-2.966    c0-1.586,1.907-2.908,4.037-2.884c0.495,0.005,0.959,0.086,1.379,0.22C15.316,19.103,16.145,19.558,16.38,20.473z M12.97,14.434    c-1.429-0.041-2.788-1.598-3.034-3.474c-0.246-1.878,0.712-3.314,2.141-3.272c1.428,0.044,2.788,1.55,3.034,3.426    C15.357,12.991,14.399,14.476,12.97,14.434z" fill="#333333"/><polygon fill="#333333" points="22.612,14.23 22.612,11.585 20.849,11.585 20.849,14.23 18.204,14.23 18.204,15.993     20.849,15.993 20.849,18.638 22.612,18.638 22.612,15.993 25.257,15.993 25.257,14.23   "/></g></g></svg>